<svg width="32" height="32" viewBox="0 0 32 32" fill="none" xmlns="http://www.w3.org/2000/svg">
<g clip-path="url(#clip0_0_190)">
<path d="M21.9315 14.9087L15.5115 21.3287C14.2433 22.5969 12.1863 22.7972 10.8027 21.6564C9.21899 20.3517 9.13404 17.9973 10.554 16.5774L18.054 9.07735C18.8489 8.28243 20.1414 8.13073 21.0092 8.84069C22.0104 9.65988 22.065 11.1344 21.173 12.0264L14.8016 18.3978C14.4678 18.7316 13.9217 18.7316 13.588 18.3978C13.2542 18.0641 13.2542 17.518 13.588 17.1842L18.8975 11.8747C19.1463 11.6259 19.1463 11.2133 18.8975 10.9645C18.6487 10.7157 18.2361 10.7157 17.9873 10.9645L12.7627 16.1891C11.9678 16.984 11.8161 18.2765 12.5261 19.1442C13.3452 20.1454 14.8198 20.2 15.7118 19.308L21.98 13.0398C23.2483 11.7715 23.4485 9.71449 22.3077 8.33098C20.997 6.74116 18.6487 6.66227 17.2288 8.08219L9.78332 15.5277C8.04179 17.2692 7.7566 20.1029 9.32822 22.0022C11.1426 24.1807 14.3647 24.296 16.3186 22.342L22.8417 15.8189C23.0905 15.5701 23.0905 15.1575 22.8417 14.9087C22.5929 14.6599 22.1803 14.6599 21.9315 14.9087Z" fill="#616161"/>
</g>
<defs>
<clipPath id="clip0_0_190">
<rect width="22.6067" height="22.6067" fill="white" transform="translate(0 16) rotate(-45)"/>
</clipPath>
</defs>
</svg>
