<svg width="21" height="21" viewBox="0 0 21 21" fill="none" xmlns="http://www.w3.org/2000/svg">
<mask id="path-1-outside-1_242_6" maskUnits="userSpaceOnUse" x="0.985382" y="0.991364" width="20" height="20" fill="black">
<rect fill="white" x="0.985382" y="0.991364" width="20" height="20"/>
<path fill-rule="evenodd" clip-rule="evenodd" d="M16.9388 16.2943C18.1977 14.8824 18.9627 13.0205 18.9627 10.98C18.9627 6.56801 15.3861 2.99136 10.9741 2.99136C6.56203 2.99136 2.98538 6.56801 2.98538 10.98C2.98538 15.3921 6.56203 18.9687 10.9741 18.9687C12.4918 18.9687 13.9106 18.5455 15.119 17.8106L17.3675 18.2929L16.9388 16.2943Z"/>
</mask>
<path d="M16.9388 16.2943L15.4492 14.9663L14.7751 15.7224L14.9875 16.7129L16.9388 16.2943ZM15.119 17.8106L15.5376 15.8593L14.7608 15.6927L14.0821 16.1055L15.119 17.8106ZM17.3675 18.2929L16.949 20.2442L19.966 20.8914L19.3188 17.8744L17.3675 18.2929ZM16.9671 10.98C16.9671 12.5121 16.3948 13.9057 15.4492 14.9663L18.4284 17.6224C20.0006 15.859 20.9584 13.529 20.9584 10.98H16.9671ZM10.9741 4.98704C14.2839 4.98704 16.9671 7.6702 16.9671 10.98H20.9584C20.9584 5.46583 16.4883 0.995688 10.9741 0.995688V4.98704ZM4.98106 10.98C4.98106 7.6702 7.66421 4.98704 10.9741 4.98704V0.995688C5.45985 0.995688 0.989706 5.46583 0.989706 10.98H4.98106ZM10.9741 16.973C7.66421 16.973 4.98106 14.2899 4.98106 10.98H0.989706C0.989706 16.4942 5.45985 20.9644 10.9741 20.9644V16.973ZM14.0821 16.1055C13.1773 16.6557 12.1158 16.973 10.9741 16.973V20.9644C12.8677 20.9644 14.6439 20.4353 16.156 19.5157L14.0821 16.1055ZM14.7005 19.7619L16.949 20.2442L17.7861 16.3416L15.5376 15.8593L14.7005 19.7619ZM19.3188 17.8744L18.8901 15.8758L14.9875 16.7129L15.4162 18.7115L19.3188 17.8744Z" fill="white" mask="url(#path-1-outside-1_242_6)"/>
</svg>
