<svg width="30" height="35" viewBox="0 0 30 35" fill="none" xmlns="http://www.w3.org/2000/svg">
<path d="M23.3443 16.1617C23.1941 16.0897 23.0416 16.0204 22.887 15.954C22.6179 10.9947 19.908 8.15545 15.3578 8.12639C15.3372 8.12626 15.3166 8.12627 15.296 8.12627C12.5744 8.12627 10.3109 9.28799 8.91769 11.402L11.4202 13.1186C12.4609 11.5395 14.0943 11.2029 15.2972 11.2029C15.3111 11.2029 15.3251 11.2029 15.3388 11.2031C16.837 11.2126 17.9676 11.6482 18.6993 12.4977C19.2318 13.1162 19.588 13.9708 19.7643 15.0494C18.436 14.8236 16.9994 14.7542 15.4637 14.8422C11.1375 15.0914 8.35634 17.6145 8.54313 21.1204C8.63791 22.8988 9.52387 24.4288 11.0377 25.4282C12.3176 26.2731 13.9661 26.6862 15.6793 26.5927C17.9418 26.4687 19.7167 25.6054 20.955 24.027C21.8954 22.8284 22.4902 21.275 22.7528 19.3177C23.8311 19.9685 24.6302 20.8248 25.0715 21.8542C25.8219 23.604 25.8657 26.4796 23.5194 28.8239C21.4637 30.8776 18.9926 31.766 15.2582 31.7935C11.1156 31.7628 7.9827 30.4342 5.94575 27.8448C4.03831 25.42 3.05254 21.9177 3.01576 17.4351C3.05254 12.9524 4.03831 9.45012 5.94575 7.02538C7.9827 4.43594 11.1156 3.10744 15.2581 3.07666C19.4307 3.10768 22.6182 4.44257 24.7331 7.04451C25.7702 8.32047 26.552 9.92508 27.0675 11.796L30 11.0136C29.3752 8.71069 28.3922 6.72626 27.0544 5.08052C24.343 1.74472 20.3776 0.0354419 15.2683 0H15.2479C10.149 0.0353188 6.22798 1.7511 3.59386 5.09964C1.24986 8.07943 0.0407546 12.2256 0.00012713 17.4228L0 17.4351L0.00012713 17.4474C0.0407546 22.6446 1.24986 26.7909 3.59386 29.7706C6.22798 33.1191 10.149 34.835 15.2479 34.8702H15.2683C19.8016 34.8388 22.9969 33.6519 25.6292 31.022C29.0732 27.5812 28.9695 23.2684 27.8344 20.6208C27.02 18.7222 25.4674 17.1801 23.3443 16.1617ZM15.5173 23.5205C13.6213 23.6273 11.6514 22.7762 11.5543 20.9534C11.4823 19.6018 12.5162 18.0936 15.6337 17.914C15.9907 17.8934 16.3411 17.8833 16.6852 17.8833C17.8176 17.8833 18.8769 17.9933 19.8401 18.2039C19.4808 22.6902 17.3737 23.4186 15.5173 23.5205Z" fill="white"/>
</svg>
