<svg width="12" height="12" viewBox="0 0 12 12" fill="none" xmlns="http://www.w3.org/2000/svg">
<path d="M5.37445 1.22418C5.71945 0.92918 6.28445 0.92918 6.63445 1.22418L7.42445 1.90418C7.57445 2.03418 7.85445 2.13918 8.05445 2.13918H8.90445C9.43445 2.13918 9.86945 2.57418 9.86945 3.10418V3.95418C9.86945 4.14918 9.97445 4.43418 10.1045 4.58418L10.7845 5.37418C11.0795 5.71918 11.0795 6.28418 10.7845 6.63418L10.1045 7.42418C9.97445 7.57418 9.86945 7.85418 9.86945 8.05418V8.90418C9.86945 9.43418 9.43445 9.86918 8.90445 9.86918H8.05445C7.85945 9.86918 7.57445 9.97418 7.42445 10.1042L6.63445 10.7842C6.28945 11.0792 5.72445 11.0792 5.37445 10.7842L4.58445 10.1042C4.43445 9.97418 4.15445 9.86918 3.95445 9.86918H3.08945C2.55945 9.86918 2.12445 9.43418 2.12445 8.90418V8.04918C2.12445 7.85418 2.01945 7.57418 1.89445 7.42418L1.21945 6.62918C0.929453 6.28418 0.929453 5.72418 1.21945 5.37918L1.89445 4.58418C2.01945 4.43418 2.12445 4.15418 2.12445 3.95918V3.09918C2.12445 2.56918 2.55945 2.13418 3.08945 2.13418H3.95445C4.14945 2.13418 4.43445 2.02918 4.58445 1.89918L5.37445 1.22418Z" fill="#3E95EF" stroke="#3E95EF" stroke-width="0.75" stroke-linecap="round" stroke-linejoin="round"/>
<path d="M4.18945 5.99906L5.39445 7.20906L7.80945 4.78906" stroke="#101010" stroke-width="0.75" stroke-linecap="round" stroke-linejoin="round"/>
</svg>
